<svg xmlns="http://www.w3.org/2000/svg" xmlns:xlink="http://www.w3.org/1999/xlink" width="322.635" height="84.367" viewBox="0 0 322.635 84.367">
  <defs>
    <style>
      .cls-1 {
        fill: #fff;
      }

      .cls-2 {
        fill: url(#linear-gradient);
      }

      .cls-3 {
        fill: url(#linear-gradient-2);
      }

      .cls-4 {
        fill: url(#linear-gradient-3);
      }

      .cls-5 {
        fill: #040000;
      }

      .cls-6 {
        fill: #989898;
      }
    </style>
    <linearGradient id="linear-gradient" x1="0.5" x2="0.5" y2="1" gradientUnits="objectBoundingBox">
      <stop offset="0" stop-color="#04e06e"/>
      <stop offset="1" stop-color="#03c360"/>
    </linearGradient>
    <linearGradient id="linear-gradient-2" x1="0.5" y1="0" x2="0.5" y2="1" xlink:href="#linear-gradient"/>
    <linearGradient id="linear-gradient-3" x1="0.5" y1="0" x2="0.5" y2="1" xlink:href="#linear-gradient"/>
  </defs>
  <g id="Kivisense_logo_2020-28" data-name="Kivisense logo 2020-28" transform="translate(-1 -0.614)">
    <rect id="矩形_1" data-name="矩形 1" class="cls-1" width="322.632" height="83.999" transform="translate(1 0.798)"/>
    <path id="路径_1" data-name="路径 1" class="cls-2" d="M45.931,58.123,88.174,16.162a1.732,1.732,0,0,0-.358-2.725L69.174,2.669a15.349,15.349,0,0,0-15.344,0L43.994,8.349a1.728,1.728,0,0,0-.864,1.518l.033,47.121a1.627,1.627,0,0,0,2.768,1.136Z" transform="translate(-22.023)"/>
    <path id="路径_2" data-name="路径 2" class="cls-3" d="M7.858,31.693A13.731,13.731,0,0,0,1,43.577V72.166A13.717,13.717,0,0,0,7.859,84.045l24.76,14.294a13.7,13.7,0,0,0,13.717,0l19-10.977a1.732,1.732,0,0,0,.358-2.72L45.3,64.3a1.155,1.155,0,0,0-1.627,0L27.827,79.978a8.285,8.285,0,0,1-9.545,1.613,8.486,8.486,0,0,1-4.773-7.7V31.416a1.723,1.723,0,0,0-2.592-1.494Z" transform="translate(0 -15.198)"/>
    <path id="路径_3" data-name="路径 3" class="cls-4" d="M132.025,77.906V49.317a13.74,13.74,0,0,0-2.5-7.923,1.728,1.728,0,0,0-2.625-.224L104.778,63.077a1.15,1.15,0,0,0,0,1.632L126.56,86.492a1.723,1.723,0,0,0,2.572-.138,13.717,13.717,0,0,0,2.892-8.448Z" transform="translate(-54.071 -20.938)"/>
    <path id="路径_4" data-name="路径 4" class="cls-5" d="M224.085,58.687c-.673,0-1.389-.033-2.152-.1a1.37,1.37,0,0,1,.248-2.725c3.078.282,5.159-.062,6.176-1.017s1-3.5.955-5.207V47.276a1.432,1.432,0,0,0-1.336-1.48h-3.918A4.157,4.157,0,0,1,220,41.577V38.236a4.157,4.157,0,0,1,4.076-4.219h3.918a1.432,1.432,0,0,0,1.336-1.48V29.989a1.432,1.432,0,0,0-1.336-1.48h-6.372a1.37,1.37,0,0,1,0-2.74h6.372a4.152,4.152,0,0,1,4.076,4.219v2.572a4.152,4.152,0,0,1-4.076,4.219h-3.918a1.432,1.432,0,0,0-1.336,1.48V41.6a1.432,1.432,0,0,0,1.336,1.48h3.918A4.157,4.157,0,0,1,232.07,47.3s-.038,1.637,0,2.291c.053,2.086.119,5.455-1.823,7.274C228.91,58.076,226.886,58.687,224.085,58.687Zm5.25-10.089Z" transform="translate(-114.478 -13.15)"/>
    <path id="路径_5" data-name="路径 5" class="cls-5" d="M271.973,33.7a1.432,1.432,0,0,1-.611-.143,1.37,1.37,0,0,1-.611-1.837,12.739,12.739,0,0,0,.725-3.317h-15.64a1.37,1.37,0,0,1-1.193-2.047l3.031-5.3a1.373,1.373,0,0,1,2.386,1.36L258.2,25.666H273a1.384,1.384,0,0,1,1,.434,1.36,1.36,0,0,1,.363,1.026c-.024.415-.3,4.109-1.15,5.818a1.36,1.36,0,0,1-1.241.759Z" transform="translate(-132.494 -10.325)"/>
    <path id="路径_6" data-name="路径 6" class="cls-5" d="M367.542,27.1h-15.22a1.37,1.37,0,0,1-1.188-2.047l3.026-5.3a1.372,1.372,0,0,1,2.386,1.355l-1.857,3.25h12.862a1.37,1.37,0,0,1,0,2.74Z" transform="translate(-182.933 -9.644)"/>
    <path id="路径_7" data-name="路径 7" class="cls-5" d="M269.05,64.409a1.37,1.37,0,0,1,0-2.74c.687,0,.773-.439.773-1.942V35.11a1.37,1.37,0,0,1,2.74,0V59.8C272.562,62.872,271.937,64.409,269.05,64.409Z" transform="translate(-139.402 -17.316)"/>
    <path id="路径_8" data-name="路径 8" class="cls-5" d="M609.2,57.015a1.37,1.37,0,0,1,0-2.74c.811,0,.73-1.15.773-1.942V21.76a1.37,1.37,0,1,1,2.74,0v30.66C612.646,54.128,612.6,57.015,609.2,57.015Z" transform="translate(-317.21 -10.337)"/>
    <path id="路径_9" data-name="路径 9" class="cls-5" d="M252.668,68.088a1.389,1.389,0,0,1-.415-.062,1.37,1.37,0,0,1-.892-1.718l3.026-9.584a1.37,1.37,0,0,1,2.611.821l-3.026,9.588a1.37,1.37,0,0,1-1.3.955Z" transform="translate(-130.838 -28.86)"/>
    <path id="路径_10" data-name="路径 10" class="cls-5" d="M291.339,68.46a1.37,1.37,0,0,1-1.308-.955L287,57.922a1.37,1.37,0,1,1,2.611-.826l3.031,9.588a1.375,1.375,0,0,1-.9,1.718A1.36,1.36,0,0,1,291.339,68.46Z" transform="translate(-149.464 -29.003)"/>
    <path id="路径_11" data-name="路径 11" class="cls-5" d="M366.632,59.33H349.14a1.37,1.37,0,0,1,0-2.74h17.492a1.37,1.37,0,0,1,0,2.74Z" transform="translate(-181.268 -29.26)"/>
    <path id="路径_12" data-name="路径 12" class="cls-5" d="M347.526,63.9a1.37,1.37,0,0,1-.477-2.644,25.772,25.772,0,0,0,5.565-3.77c3.121-2.835,3.1-6.252,3.069-14.5,0-2.3-.024-5.727.033-8.786a1.37,1.37,0,0,1,1.37-1.346h-.014a1.37,1.37,0,0,1,1.346,1.394c-.057,3.026-.043,6.443-.033,8.729.038,8.591.052,12.886-3.966,16.537a27.681,27.681,0,0,1-6.4,4.3A1.46,1.46,0,0,1,347.526,63.9Z" transform="translate(-180.438 -16.851)"/>
    <path id="路径_13" data-name="路径 13" class="cls-5" d="M381.373,80.892a1.365,1.365,0,0,1-1.432-.983c-.52-1.8-2.735-5.159-4.749-7.951a1.376,1.376,0,0,1,2.1-1.78,27.17,27.17,0,0,1,5.279,8.973,1.365,1.365,0,0,1-.955,1.694,1.264,1.264,0,0,1-.243.048Z" transform="translate(-195.432 -36.109)"/>
    <path id="路径_14" data-name="路径 14" class="cls-5" d="M479.171,72.1a1.461,1.461,0,0,1-.477-.081,1.374,1.374,0,0,1-.787-1.756c1.1-3.016,1.355-14.275,1.365-18.356a1.37,1.37,0,0,1,1.365-1.37h0A1.365,1.365,0,0,1,482,51.915c0,1.551-.062,15.273-1.527,19.291A1.374,1.374,0,0,1,479.171,72.1Z" transform="translate(-249.25 -26.098)"/>
    <path id="路径_15" data-name="路径 15" class="cls-5" d="M630.643,70.158a1.37,1.37,0,0,1-.52-2.639c11.7-4.773,16.728-19.854,16.776-20.007a1.37,1.37,0,1,1,2.606.845c-.215.673-5.455,16.447-18.346,21.7A1.327,1.327,0,0,1,630.643,70.158Z" transform="translate(-328.416 -24.02)"/>
    <path id="路径_16" data-name="路径 16" class="cls-5" d="M403.754,55.372h-4.1a5.25,5.25,0,0,1-5.25-5.25V35.25A5.25,5.25,0,0,1,399.65,30h4.1A5.25,5.25,0,0,1,409,35.25V50.1a5.25,5.25,0,0,1-5.25,5.269Zm-4.1-22.665a2.534,2.534,0,0,0-2.534,2.53V50.1a2.534,2.534,0,0,0,2.534,2.534h4.1a2.534,2.534,0,0,0,2.534-2.534V35.25a2.534,2.534,0,0,0-2.534-2.53Z" transform="translate(-205.643 -15.361)"/>
    <path id="路径_17" data-name="路径 17" class="cls-5" d="M479.246,24.529a1.37,1.37,0,0,1-.181-2.73l11.178-1.513A1.37,1.37,0,0,1,490.61,23l-11.178,1.513Z" transform="translate(-249.268 -10.277)"/>
    <path id="路径_18" data-name="路径 18" class="cls-5" d="M491.524,41.64H478.91a1.37,1.37,0,0,1,0-2.74h12.614a1.37,1.37,0,0,1,0,2.74Z" transform="translate(-249.103 -20.013)"/>
    <path id="路径_19" data-name="路径 19" class="cls-5" d="M612.777,65.2l-10.743,6.629a1.37,1.37,0,1,1-1.432-2.334l10.743-6.605a1.37,1.37,0,1,1,1.432,2.329Z" transform="translate(-313.07 -32.42)"/>
    <path id="路径_20" data-name="路径 20" class="cls-5" d="M610.247,43.162H600.7a1.37,1.37,0,1,1,0-2.735h9.545a1.37,1.37,0,1,1,0,2.735Z" transform="translate(-312.725 -20.81)"/>
    <path id="路径_21" data-name="路径 21" class="cls-5" d="M649.84,33.89H630.75a1.37,1.37,0,0,1,0-2.74H649.84a1.37,1.37,0,0,1,0,2.74Z" transform="translate(-328.475 -15.962)"/>
    <path id="路径_22" data-name="路径 22" class="cls-5" d="M652,49H637.85a1.37,1.37,0,0,1,0-2.74H652A1.37,1.37,0,0,1,652,49Z" transform="translate(-332.186 -23.861)"/>
    <path id="路径_23" data-name="路径 23" class="cls-5" d="M492.65,59.531a1.37,1.37,0,0,1-1.37-1.37V27.01a1.37,1.37,0,0,1,2.74,0V58.161a1.365,1.365,0,0,1-1.37,1.37Z" transform="translate(-256.286 -13.082)"/>
    <path id="路径_24" data-name="路径 24" class="cls-5" d="M502.694,60.645a1.37,1.37,0,0,1-1.365-1.255l-.535-6.343a1.37,1.37,0,1,1,2.725-.229l.539,6.343a1.37,1.37,0,0,1-1.25,1.48Z" transform="translate(-261.252 -26.59)"/>
    <path id="路径_25" data-name="路径 25" class="cls-5" d="M523.883,32.992a1.346,1.346,0,0,1-.539-.11l-4.734-2.014a1.371,1.371,0,0,1,1.079-2.52l4.73,2.014a1.37,1.37,0,0,1-.535,2.63Z" transform="translate(-270.137 -14.44)"/>
    <path id="路径_26" data-name="路径 26" class="cls-5" d="M522.337,51.8a1.322,1.322,0,0,1-.535-.11l-4.715-2a1.37,1.37,0,1,1,1.074-2.52l4.734,2.019a1.37,1.37,0,0,1-.558,2.615Z" transform="translate(-269.34 -24.278)"/>
    <path id="路径_27" data-name="路径 27" class="cls-5" d="M511.6,69.59a1.37,1.37,0,0,1-.344-2.7l20.045-5.25a1.37,1.37,0,0,1,.692,2.649l-20.045,5.25a1.479,1.479,0,0,1-.348.048Z" transform="translate(-266.188 -31.885)"/>
    <path id="路径_28" data-name="路径 28" class="cls-5" d="M539.56,56.657a1.365,1.365,0,0,1-1.37-1.37V20.59a1.37,1.37,0,1,1,2.739,0v34.7a1.37,1.37,0,0,1-1.37,1.37Z" transform="translate(-280.807 -9.726)"/>
    <path id="路径_29" data-name="路径 29" class="cls-5" d="M651.242,33.646a1.365,1.365,0,0,1-1.365-1.365V18.831a1.37,1.37,0,1,1,2.735,0V32.281a1.365,1.365,0,0,1-1.37,1.365Z" transform="translate(-339.188 -8.764)"/>
    <path id="路径_30" data-name="路径 30" class="cls-5" d="M654.274,78.2a1.465,1.465,0,0,1-1.389-.668c-4.887-7.67-15.984-14.752-16.108-14.8a1.47,1.47,0,1,1,1.475-2.544c.525.305,11.841,7.517,17.11,15.783a1.465,1.465,0,0,1-1.088,2.248Z" transform="translate(-331.959 -31.04)"/>
    <path id="路径_31" data-name="路径 31" class="cls-6" d="M482.919,137.138h6.309a1.083,1.083,0,0,0,1.083-1.083h0a1.083,1.083,0,0,0-1.083-1.079h-6.309a.587.587,0,0,1-.587-.587v-2.95a.587.587,0,0,1,.587-.587h7.1a1.079,1.079,0,0,0,1.083-1.079h0a1.079,1.079,0,0,0-1.083-1.083h-9.264a.582.582,0,0,0-.582.582V141.9a.582.582,0,0,0,.582.582h9.741a1.083,1.083,0,0,0,1.083-1.079h0a1.083,1.083,0,0,0-1.083-1.083h-7.574a.587.587,0,0,1-.587-.587v-2.009A.587.587,0,0,1,482.919,137.138Z" transform="translate(-250.478 -66.949)"/>
    <path id="路径_32" data-name="路径 32" class="cls-6" d="M654.932,139.734v-2.009a.587.587,0,0,1,.587-.587h6.309a1.083,1.083,0,0,0,1.083-1.083h0a1.083,1.083,0,0,0-1.083-1.079H655.52a.587.587,0,0,1-.587-.587v-2.95a.587.587,0,0,1,.587-.587h7.1a1.083,1.083,0,0,0,1.083-1.079h0a1.083,1.083,0,0,0-1.083-1.083h-9.254a.582.582,0,0,0-.582.582V141.9a.582.582,0,0,0,.582.582H663.1a1.083,1.083,0,0,0,1.083-1.079h0a1.083,1.083,0,0,0-1.083-1.083H655.52a.587.587,0,0,1-.587-.587Z" transform="translate(-340.707 -66.949)"/>
    <rect id="矩形_2" data-name="矩形 2" class="cls-6" width="2.2" height="13.76" rx="1.1" transform="translate(183.617 61.812)"/>
    <rect id="矩形_3" data-name="矩形 3" class="cls-6" width="2.2" height="13.76" rx="1.1" transform="translate(135.518 61.812)"/>
    <path id="路径_33" data-name="路径 33" class="cls-6" d="M328.37,138.335v-8.419a1.1,1.1,0,0,0-1.1-1.1h0a1.1,1.1,0,0,0-1.1,1.1v10.977a1.651,1.651,0,0,0,1.651,1.656h0a1.666,1.666,0,0,0,1.327-.659l8.534-11.34a1.1,1.1,0,0,0-.883-1.761h-.186a1.107,1.107,0,0,0-.883.439l-6.939,9.221a.234.234,0,0,1-.42-.115Z" transform="translate(-169.977 -67.002)"/>
    <path id="路径_34" data-name="路径 34" class="cls-6" d="M230.973,128.84h-.186a1.107,1.107,0,0,0-.883.439l-6.939,9.221a.234.234,0,0,1-.42-.138v-8.419a1.1,1.1,0,0,0-1.1-1.1h0a1.1,1.1,0,0,0-1.1,1.1V140.92A1.656,1.656,0,0,0,222,142.576h0a1.651,1.651,0,0,0,1.322-.659l3.293-4.372a.582.582,0,0,1,.955,0l3.46,4.591a1.088,1.088,0,0,0,.878.439h.186a1.1,1.1,0,0,0,.883-1.761l-4.138-5.493a.6.6,0,0,1,0-.7l3.04-4.042a1.1,1.1,0,0,0-.9-1.737Z" transform="translate(-114.656 -67.028)"/>
    <path id="路径_35" data-name="路径 35" class="cls-6" d="M547.475,128.55h0a1.107,1.107,0,0,0-1.1,1.1v8.366a.234.234,0,0,1-.42.143l-6.772-8.92a1.456,1.456,0,0,0-1.155-.573h-.043a1.432,1.432,0,0,0-1.432,1.432v11.2a1.1,1.1,0,0,0,1.1,1.1h0a1.1,1.1,0,0,0,1.1-1.1v-8.376a.234.234,0,0,1,.42-.143l6.815,8.954a1.432,1.432,0,0,0,1.16.573h0a1.432,1.432,0,0,0,1.432-1.432V129.652A1.1,1.1,0,0,0,547.475,128.55Z" transform="translate(-279.95 -66.876)"/>
    <path id="路径_36" data-name="路径 36" class="cls-6" d="M427.177,133.874a4.737,4.737,0,0,1-3.341-1,1.165,1.165,0,0,1-.344-.955c0-1.165.568-2.09,3.665-2.09a5.98,5.98,0,0,1,3.818,1.069,1.055,1.055,0,0,0,1.3,0h0a1.069,1.069,0,0,0,.048-1.666,7.86,7.86,0,0,0-5.159-1.57c-3.818,0-5.866,1.432-5.866,4.229a3.255,3.255,0,0,0,.988,2.467c1,1.031,2.6,1.565,4.878,1.585,3.775.038,4.229,1.117,4.229,1.985,0,1.785-1.957,2.167-4.229,2.167a7.9,7.9,0,0,1-4.467-1.522,1.017,1.017,0,0,0-.955-.172h0a1.017,1.017,0,0,0-.477,1.618,7.923,7.923,0,0,0,5.88,2.253c2.53,0,4.176-.339,5.317-1.527a3.614,3.614,0,0,0,1.04-2.9C433.535,135.048,431.516,133.874,427.177,133.874Z" transform="translate(-219.564 -66.411)"/>
    <path id="路径_37" data-name="路径 37" class="cls-6" d="M600.262,133.874a4.737,4.737,0,0,1-3.341-1,1.15,1.15,0,0,1-.348-.955c0-1.165.568-2.09,3.67-2.09a5.991,5.991,0,0,1,3.818,1.069,1.055,1.055,0,0,0,1.3,0h0a1.069,1.069,0,0,0,.048-1.666,7.88,7.88,0,0,0-5.159-1.57c-3.818,0-5.87,1.432-5.87,4.229a3.255,3.255,0,0,0,.988,2.467c1.007,1.031,2.6,1.565,4.882,1.585,3.77.038,4.229,1.117,4.229,1.985,0,1.785-1.962,2.167-4.229,2.167a7.918,7.918,0,0,1-4.472-1.522,1,1,0,0,0-.954-.172h0a1.017,1.017,0,0,0-.477,1.618,7.906,7.906,0,0,0,5.88,2.253c2.525,0,4.176-.339,5.317-1.527a3.614,3.614,0,0,0,1.04-2.9C606.6,135.048,604.558,133.874,600.262,133.874Z" transform="translate(-310.039 -66.411)"/>
  </g>
</svg>
